# xmcd
#
# Track frame offsets: 
#        150
#        15343
#        33807
#        52340
#        70296
#        92333
#        111274
#        128073
#        146846
#        166456
#        168521
#        195934
#
# Disc length: 4440 seconds
#
# Revision: 3
# Processed by: cddbd v1.5.1PL0 Copyright (c) Steve Scherf et al.
# Submitted via: ExactAudioCopy v0.95a5
#
DISCID=9d11560c
DTITLE=Anneli Drecker - Frolic
DYEAR=2005
DGENRE=Pop
TTITLE0=You Don't Have to Change
TTITLE1=Safe Now
TTITLE2=My Emily
TTITLE3=Stop This
TTITLE4=Strange Little Bird
TTITLE5=Painted Black
TTITLE6=Desire
TTITLE7=Angel Bossanova
TTITLE8=The Monkey Trip
TTITLE9=Interlude
TTITLE10=Cool World
TTITLE11=Data fil
EXTD=
EXTT0=
EXTT1=
EXTT2=
EXTT3=
EXTT4=
EXTT5=
EXTT6=
EXTT7=
EXTT8=
EXTT9=
EXTT10=
EXTT11=
PLAYORDER=
